<svg xmlns="http://www.w3.org/2000/svg" viewBox="0 0 1400 527" height="527" width="1400">
    <defs>
	<style type="text/css">
        @font-face {
            src: url('https://fonts.googleapis.com/css2?family=Share+Tech+Mono&amp;display=swap');
        }
	</style>
    </defs>
	<rect width="512" height="512" style="fill:#000000" x="100" y="0">
	<animateMotion dur="0.25s" values="100,0; 100,30" fill="freeze"></animateMotion>
	<animateMotion begin="0.35s" dur="0.15s" values="100,30;40,30" fill="freeze"></animateMotion>
	</rect>
	<rect width="512" height="512" style="fill:#fd0054" x="100" y="0">
	<animateMotion dur="0.25s" values="100,0; 70,-20" fill="freeze"></animateMotion>
	<animateMotion begin="0.35s" dur="0.15s" values="70,-20;10,-20" fill="freeze"></animateMotion>
	</rect>
	<path fill="#ffffff" d="M258.59 177.68L256.77 215.21Q251.8 213.04 245.14 210.86Q238.61 208.55 231.34 206.74Q224.2 204.92 216.81 203.83Q209.42 202.62 202.88 202.62Q191.5 202.62 185.08 205.53Q178.66 208.43 178.66 215.34Q178.66 218.61 180.84 221.15Q183.14 223.57 187.26 225.75Q191.38 227.81 197.07 229.87Q202.88 231.8 209.91 233.98L218.75 236.77Q229.89 240.16 238.73 245Q247.57 249.73 253.62 256.27Q259.8 262.68 263.07 271.04Q266.34 279.39 266.34 290.05Q266.34 302.52 262.34 312.82Q258.46 322.99 250.11 330.25Q241.75 337.52 228.68 341.52Q215.72 345.51 197.43 345.51Q181.21 345.51 165.1 342.85Q149.12 340.18 132.77 333.52L132.77 293.56Q148.39 301.55 163.04 305.31Q177.82 308.94 192.11 308.94Q203.85 308.94 209.18 305.19Q214.63 301.43 214.63 294.77Q214.63 290.78 212.57 287.99Q210.63 285.09 206.15 282.66Q201.79 280.24 194.65 277.82Q187.5 275.28 177.33 272.13Q167.16 269.1 158.44 264.5Q149.84 259.9 143.55 253.48Q137.25 246.94 133.62 238.34Q130.11 229.75 130.11 218.73Q130.11 207.34 134.1 197.9Q138.1 188.45 146.33 181.79Q154.57 175.01 167.16 171.26Q179.88 167.5 197.31 167.5Q204.21 167.5 211.96 168.11Q219.71 168.71 227.71 169.93Q235.82 171.14 243.69 173.07Q251.56 175.01 258.59 177.68ZM324.34 345.51Q313.32 345.51 303.03 343.94Q292.86 342.36 285.59 337.76L285.59 303.25Q293.7 305.79 300.61 306.52Q307.63 307.13 312.71 307.13Q318.16 307.13 321.19 304.95Q324.34 302.64 325.91 299.13Q327.49 295.62 327.85 291.26Q328.21 286.78 328.21 282.42L328.21 170.77L382.46 170.77L382.46 290.05Q382.46 304.58 377.38 315.12Q372.29 325.53 364.06 332.31Q355.95 339.09 345.41 342.36Q335 345.51 324.34 345.51Z" id="SJ">
	<animateMotion dur="0.25s" values="160,0; 140,-20" fill="freeze"></animateMotion>
	<animateMotion begin="0.35s" dur="0.15s" values="140,-20;90,-20" fill="freeze"></animateMotion>
	</path>
	<text id="text18" style="font-size:100px; font-family: 'Share Tech Mono', monospace;" opacity="0">
	<animateMotion begin="0.35s" dur="0.15s" values="60,0;80,0" fill="freeze"></animateMotion>
	<animate attributeName="opacity" begin="0.35s" to="1" dur="0.15s" fill="freeze"></animate>
	<tspan y="256" x="600">
	<tspan style="text-transform:uppercase">soeren.codes</tspan>
	</tspan>
	</text>
</svg>